# xmcd
#
# Track frame offsets:
#	150
#	23460
#	40171
#	56789
#	76813
#	100586
#	121909
#	141194
#	156176
#	186807
#
# Disc length: 2838 seconds
#
# Revision: 1
# Processed by: cddbd v1.5.2PL0 Copyright (c) Steve Scherf et al.
# Submitted via: audiograbber 1.83.01
#
DISCID=740b140a
DTITLE=Big Sexy Noise - Trust the Witch
DYEAR=2011
DGENRE=Alternative
TTITLE0=Ballin' the Jack
TTITLE1=Cross the Line
TTITLE2=Won't Leave You Alone
TTITLE3=Mahakali Calling
TTITLE4=Trust the Witch
TTITLE5=Devil's Working Overtime
TTITLE6=Where You Gonna Run
TTITLE7=Collision Course
TTITLE8=Not Your Fault
TTITLE9=Forever on the Run
EXTD=
EXTT0=
EXTT1=
EXTT2=
EXTT3=
EXTT4=
EXTT5=
EXTT6=
EXTT7=
EXTT8=
EXTT9=
PLAYORDER=
